<?xml version="1.0" encoding="UTF-8" standalone="no"?>
<svg
   width="256"
   height="256"
   viewBox="0 0 256 256"
   version="1.1"
   id="svg8"
   inkscape:version="1.4.2 (ebf0e940d0, 2025-05-08)"
   sodipodi:docname="logo.svg"
   xmlns:inkscape="http://www.inkscape.org/namespaces/inkscape"
   xmlns:sodipodi="http://sodipodi.sourceforge.net/DTD/sodipodi-0.dtd"
   xmlns="http://www.w3.org/2000/svg"
   xmlns:svg="http://www.w3.org/2000/svg"
   xmlns:rdf="http://www.w3.org/1999/02/22-rdf-syntax-ns#"
   xmlns:cc="http://creativecommons.org/ns#"
   xmlns:dc="http://purl.org/dc/elements/1.1/">
  <defs
     id="defs2">
    <rect
       x="40"
       y="192"
       width="224"
       height="112"
       id="rect4" />
    <rect
       x="8"
       y="8"
       width="240"
       height="240"
       id="rect1" />
  </defs>
  <sodipodi:namedview
     id="base"
     pagecolor="#ffffff"
     bordercolor="#666666"
     borderopacity="1.0"
     inkscape:pageopacity="0.0"
     inkscape:pageshadow="2"
     inkscape:zoom="1.979899"
     inkscape:cx="118.94546"
     inkscape:cy="120.46069"
     inkscape:document-units="px"
     inkscape:current-layer="layer1"
     inkscape:document-rotation="0"
     showgrid="true"
     units="px"
     inkscape:showpageshadow="false"
     inkscape:window-width="1366"
     inkscape:window-height="744"
     inkscape:window-x="0"
     inkscape:window-y="0"
     inkscape:window-maximized="1"
     inkscape:pagecheckerboard="0"
     inkscape:lockguides="true"
     width="256px"
     inkscape:deskcolor="#505050">
    <inkscape:grid
       type="xygrid"
       id="grid10"
       empspacing="4"
       originx="0"
       originy="0"
       spacingy="1"
       spacingx="1"
       units="px" />
    <sodipodi:guide
       position="0,67.733335"
       orientation="0,1024"
       id="guide12"
       inkscape:locked="true" />
    <sodipodi:guide
       position="67.733335,67.733335"
       orientation="1024,0"
       id="guide14"
       inkscape:locked="true" />
    <sodipodi:guide
       position="67.733335,0"
       orientation="0,-1024"
       id="guide16"
       inkscape:locked="true" />
    <sodipodi:guide
       position="0,0"
       orientation="-1024,0"
       id="guide18"
       inkscape:locked="true" />
  </sodipodi:namedview>
  <metadata
     id="metadata5">
    <rdf:RDF>
      <cc:Work
         rdf:about="">
        <dc:format>image/svg+xml</dc:format>
        <dc:type
           rdf:resource="http://purl.org/dc/dcmitype/StillImage" />
        <dc:creator>
          <cc:Agent>
            <dc:title>Jake Uilson</dc:title>
          </cc:Agent>
        </dc:creator>
        <dc:rights>
          <cc:Agent>
            <dc:title>CC-BY</dc:title>
          </cc:Agent>
        </dc:rights>
        <cc:license
           rdf:resource="http://creativecommons.org/licenses/by/4.0/" />
      </cc:Work>
      <cc:License
         rdf:about="http://creativecommons.org/licenses/by/4.0/">
        <cc:permits
           rdf:resource="http://creativecommons.org/ns#Reproduction" />
        <cc:permits
           rdf:resource="http://creativecommons.org/ns#Distribution" />
        <cc:requires
           rdf:resource="http://creativecommons.org/ns#Notice" />
        <cc:requires
           rdf:resource="http://creativecommons.org/ns#Attribution" />
        <cc:permits
           rdf:resource="http://creativecommons.org/ns#DerivativeWorks" />
      </cc:License>
    </rdf:RDF>
  </metadata>
  <g
     inkscape:label="Layer 1"
     inkscape:groupmode="layer"
     id="layer1">
    <path
       id="path1"
       style="font-style:normal;font-variant:normal;font-weight:normal;font-stretch:normal;font-family:'URW Gothic';-inkscape-font-specification:'URW Gothic';text-align:center;writing-mode:lr-tb;direction:ltr;text-anchor:middle;white-space:pre;shape-inside:url(#rect1);fill:#000000;stroke:none;stroke-width:8.39443;stroke-linecap:round;stroke-linejoin:round"
       d="m 213.47262,56 c -21.35544,0 -39.38668,17.427816 -39.38668,38.078123 0,21.657637 17.52648,38.982427 39.48632,38.982427 21.45617,0 39.18555,-17.42723 39.18555,-38.480473 C 252.75781,73.32537 235.02952,56 213.47262,56 Z m 0,6.849612 c 17.42684,0 31.73054,14.405184 31.73054,31.832029 0,17.225379 -14.40552,31.529299 -31.6309,31.529299 -17.72904,0 -31.93167,-14.30333 -31.93167,-31.931644 0,-17.023912 14.60665,-31.429684 31.83203,-31.429684 z" />
    <path
       id="text1"
       style="font-style:normal;font-variant:normal;font-weight:normal;font-stretch:normal;font-family:'URW Gothic';-inkscape-font-specification:'URW Gothic';text-align:center;writing-mode:lr-tb;direction:ltr;text-anchor:middle;white-space:pre;shape-inside:url(#rect1);fill:#000000;stroke:none;stroke-width:8.39443;stroke-linecap:round;stroke-linejoin:round"
       d="M 42.628934,56 C 21.273495,56 3.242167,73.427816 3.242167,94.078123 c 0,21.657637 17.526487,38.982427 39.486325,38.982427 21.456173,0 39.185553,-17.42723 39.185553,-38.480473 C 81.914045,73.32537 64.18584,56 42.628934,56 Z m 0,6.849612 c 17.426845,0 31.730456,14.405184 31.730456,31.832029 0,17.225379 -14.405519,31.529299 -31.630898,31.529299 -17.729044,0 -31.931586,-14.30333 -31.931586,-31.931644 0,-17.023912 14.60665,-31.429684 31.832028,-31.429684 z" />
    <path
       style="font-style:normal;font-variant:normal;font-weight:normal;font-stretch:normal;font-family:'URW Gothic';-inkscape-font-specification:'URW Gothic';text-align:center;writing-mode:lr-tb;direction:ltr;text-anchor:middle;white-space:pre;shape-inside:url(#rect1);fill:#000000;stroke:none;stroke-width:8.39443;stroke-linecap:round;stroke-linejoin:round"
       d="m 86.648422,154 c 0,0 4.858926,16.60265 21.054668,27.75196 2.21262,1.52318 5.88539,1.57882 8.05866,0 10.36905,-7.53285 11.88475,-36.56641 11.88475,-36.56641 0,0 1.60091,29.04054 11.98826,36.56641 2.14784,1.55616 5.76872,1.49877 7.957,0 C 163.84368,170.62084 168.94728,154 168.94728,154 h -7.25195 c 0,0 -1.43584,19.2156 -17.92967,18.78711 -13.82049,-0.35903 -12.99609,-39.38672 -12.99609,-39.38672 h -6.14456 c 0,0 0.82738,39.0799 -12.99417,39.38672 C 95.183607,173.15223 94.103518,154 94.103518,154 Z"
       id="path4"
       sodipodi:nodetypes="csscssccsccscc" />
  </g>
</svg>
